<?xml version="1.0" standalone="no"?>
<!DOCTYPE svg PUBLIC "-//W3C//DTD SVG 20010904//EN"
 "http://www.w3.org/TR/2001/REC-SVG-20010904/DTD/svg10.dtd">
<svg version="1.0" xmlns="http://www.w3.org/2000/svg"
 width="1920.000000pt" height="1920.000000pt" viewBox="0 0 1920.000000 1920.000000"
 preserveAspectRatio="xMidYMid meet">
<metadata>
Created by potrace 1.16, written by Peter Selinger 2001-2019
</metadata>
<g transform="translate(0.000000,1920.000000) scale(0.100000,-0.100000)"
fill="#000000" stroke="none">
<path d="M9230 13645 l0 -735 1689 -2 1689 -3 -1819 -2435 -1818 -2435 -1
-542 0 -543 2935 0 2935 0 0 735 0 735 -1864 2 -1864 3 1809 2440 1809 2440 0
538 0 537 -2750 0 -2750 0 0 -735z"/>
<path d="M4660 11415 l0 -735 1689 -2 1689 -3 -1819 -2435 -1818 -2435 -1
-542 0 -543 2935 0 2935 0 0 735 0 735 -1864 2 -1864 3 1809 2440 1809 2440 0
538 0 537 -2750 0 -2750 0 0 -735z"/>
</g>
</svg>
